<?xml version="1.0" encoding="UTF-8" standalone="no"?>
<!-- Created with Inkscape (http://www.inkscape.org/) -->

<svg
   width="210mm"
   height="297mm"
   viewBox="0 0 210 297"
   version="1.1"
   id="svg5"
   inkscape:version="1.2.1 (9c6d41e410, 2022-07-14)"
   sodipodi:docname="text.svg"
   xmlns:inkscape="http://www.inkscape.org/namespaces/inkscape"
   xmlns:sodipodi="http://sodipodi.sourceforge.net/DTD/sodipodi-0.dtd"
   xmlns="http://www.w3.org/2000/svg"
   xmlns:svg="http://www.w3.org/2000/svg">
  <sodipodi:namedview
     id="namedview7"
     pagecolor="#505050"
     bordercolor="#eeeeee"
     borderopacity="1"
     inkscape:showpageshadow="0"
     inkscape:pageopacity="0"
     inkscape:pagecheckerboard="0"
     inkscape:deskcolor="#505050"
     inkscape:document-units="px"
     showgrid="false"
     showborder="false"
     inkscape:zoom="0.70710678"
     inkscape:cx="548.71486"
     inkscape:cy="28.284271"
     inkscape:window-width="2560"
     inkscape:window-height="1490"
     inkscape:window-x="-12"
     inkscape:window-y="-12"
     inkscape:window-maximized="1"
     inkscape:current-layer="layer1" />
  <defs
     id="defs2">
    <filter
       inkscape:collect="always"
       style="color-interpolation-filters:sRGB"
       id="filter18393"
       x="-0.16639374"
       y="-0.16999848"
       width="1.3327848"
       height="1.339997">
      <feGaussianBlur
         inkscape:collect="always"
         stdDeviation="0.02595254"
         id="feGaussianBlur18395" />
    </filter>
  </defs>
  <g
     inkscape:label="Layer 1"
     inkscape:groupmode="layer"
     id="layer1">
    <g
       id="g24309"
       transform="translate(-20.205576,-51.636473)">
      <path
         d="m 301.51322,80.023033 q 0.0705,-0.423192 0.0941,-0.775853 0.047,-0.35266 0.047,-0.728831 0,-1.857345 -1.15203,-2.844794 -1.15202,-0.987449 -3.315,-0.987449 -2.60969,0 -4.3965,1.410641 -1.76331,1.410642 -2.68022,3.926286 z m -6.46544,17.30387 q -6.74757,0 -10.41523,-2.985858 -3.66767,-2.985858 -3.66767,-8.252253 0,-3.597136 1.19904,-6.606505 1.19905,-3.009369 3.45608,-5.289906 2.16298,-2.210005 5.40745,-3.503093 3.24448,-1.293088 7.12374,-1.293088 5.90119,0 8.88705,2.398091 3.00936,2.37458 3.00936,7.029697 0,1.598727 -0.32914,3.126922 -0.30564,1.528195 -0.82288,3.032879 h -19.60792 q 0,0.141064 0,0.282128 0,0.117554 0,0.258618 0,2.750751 1.92788,4.302457 1.92788,1.551706 5.90118,1.551706 2.77427,0 5.24289,-0.940428 2.49213,-0.940428 4.32597,-2.092452 h 0.94042 l -1.57521,6.79459 q -2.46863,1.081492 -5.19587,1.622238 -2.72724,0.564257 -5.80714,0.564257 z"
         id="path21315"
         style="font-style:italic;font-weight:bold;font-size:48.1499px;line-height:2.9;-inkscape-font-specification:'sans-serif, Bold Italic';letter-spacing:24.0689px;opacity:0.900585;stroke:#000000;stroke-width:9.1;stroke-linecap:round;stroke-linejoin:round;stroke-miterlimit:9.6;filter:url(#filter18393)" />
      <path
         d="m 299.4495,77.98568 q 0.0705,-0.423193 0.094,-0.775853 0.047,-0.352661 0.047,-0.728832 0,-1.857345 -1.15203,-2.844794 -1.15202,-0.987449 -3.315,-0.987449 -2.60969,0 -4.3965,1.410642 -1.76331,1.410641 -2.68022,3.926286 z m -6.46544,17.303869 q -6.74757,0 -10.41523,-2.985858 -3.66767,-2.985858 -3.66767,-8.252253 0,-3.597136 1.19904,-6.606504 1.19905,-3.009369 3.45607,-5.289906 2.16299,-2.210005 5.40746,-3.503093 3.24448,-1.293089 7.12374,-1.293089 5.90119,0 8.88705,2.398091 3.00936,2.37458 3.00936,7.029697 0,1.598727 -0.32915,3.126922 -0.30563,1.528195 -0.82287,3.03288 h -19.60792 q 0,0.141064 0,0.282128 0,0.117553 0,0.258618 0,2.750751 1.92788,4.302456 1.92788,1.551706 5.90118,1.551706 2.77427,0 5.24289,-0.940428 2.49213,-0.940427 4.32597,-2.092451 h 0.94042 l -1.57521,6.79459 q -2.46863,1.081492 -5.19587,1.622238 -2.72724,0.564256 -5.80714,0.564256 z"
         id="path21332"
         style="font-style:italic;font-weight:bold;font-size:48.1499px;line-height:2.9;-inkscape-font-specification:'sans-serif, Bold Italic';letter-spacing:24.0689px;fill:#ffffff;stroke:#ffffff;stroke-width:9.1;stroke-linecap:round;stroke-linejoin:round;stroke-miterlimit:9.6" />
      <path
         d="m 299.4495,77.98568 q 0.0705,-0.423193 0.094,-0.775853 0.047,-0.352661 0.047,-0.728832 0,-1.857345 -1.15203,-2.844794 -1.15202,-0.987449 -3.315,-0.987449 -2.60969,0 -4.3965,1.410642 -1.76331,1.410641 -2.68022,3.926286 z m -6.46544,17.303869 q -6.74757,0 -10.41523,-2.985858 -3.66767,-2.985858 -3.66767,-8.252253 0,-3.597136 1.19904,-6.606504 1.19905,-3.009369 3.45607,-5.289906 2.16299,-2.210005 5.40746,-3.503093 3.24448,-1.293089 7.12374,-1.293089 5.90119,0 8.88705,2.398091 3.00936,2.37458 3.00936,7.029697 0,1.598727 -0.32915,3.126922 -0.30563,1.528195 -0.82287,3.03288 h -19.60792 q 0,0.141064 0,0.282128 0,0.117553 0,0.258618 0,2.750751 1.92788,4.302456 1.92788,1.551706 5.90118,1.551706 2.77427,0 5.24289,-0.940428 2.49213,-0.940427 4.32597,-2.092451 h 0.94042 l -1.57521,6.79459 q -2.46863,1.081492 -5.19587,1.622238 -2.72724,0.564256 -5.80714,0.564256 z"
         id="path21349"
         style="font-style:italic;font-weight:bold;font-size:48.1499px;line-height:2.9;-inkscape-font-specification:'sans-serif, Bold Italic';letter-spacing:24.0689px;fill:#6f8a91;stroke:#6f8a91;stroke-width:5;stroke-linecap:round;stroke-linejoin:round;stroke-miterlimit:9.6" />
      <path
         d="m 299.4495,77.98568 q 0.0705,-0.423193 0.094,-0.775853 0.047,-0.352661 0.047,-0.728832 0,-1.857345 -1.15203,-2.844794 -1.15202,-0.987449 -3.315,-0.987449 -2.60969,0 -4.3965,1.410642 -1.76331,1.410641 -2.68022,3.926286 z m -6.46544,17.303869 q -6.74757,0 -10.41523,-2.985858 -3.66767,-2.985858 -3.66767,-8.252253 0,-3.597136 1.19904,-6.606504 1.19905,-3.009369 3.45607,-5.289906 2.16299,-2.210005 5.40746,-3.503093 3.24448,-1.293089 7.12374,-1.293089 5.90119,0 8.88705,2.398091 3.00936,2.37458 3.00936,7.029697 0,1.598727 -0.32915,3.126922 -0.30563,1.528195 -0.82287,3.03288 h -19.60792 q 0,0.141064 0,0.282128 0,0.117553 0,0.258618 0,2.750751 1.92788,4.302456 1.92788,1.551706 5.90118,1.551706 2.77427,0 5.24289,-0.940428 2.49213,-0.940427 4.32597,-2.092451 h 0.94042 l -1.57521,6.79459 q -2.46863,1.081492 -5.19587,1.622238 -2.72724,0.564256 -5.80714,0.564256 z"
         id="path21366"
         style="font-style:italic;font-weight:bold;font-size:48.1499px;line-height:2.9;-inkscape-font-specification:'sans-serif, Bold Italic';letter-spacing:24.0689px;fill:#ffffff;stroke-width:1.587;stroke-linecap:round;stroke-linejoin:round;stroke-miterlimit:9.6" />
    </g>
    <g
       id="g25041"
       transform="translate(5.885915,-51.636473)">
      <path
         d="m 253.58098,78.659413 q 0,3.644157 -1.19905,7.076718 -1.17553,3.409051 -3.22096,5.877673 -2.13948,2.609687 -4.84321,4.06735 -2.68022,1.457663 -6.01873,1.457663 -2.11597,0 -3.90278,-0.493724 -1.7633,-0.470214 -3.19745,-1.34011 l -2.53916,11.003007 h -8.51087 l 8.3463,-36.088916 h 8.51087 l -0.63479,2.750751 q 2.39809,-1.645748 4.42001,-2.562665 2.04543,-0.916917 4.51405,-0.916917 3.99682,0 6.13629,2.445112 2.13948,2.421601 2.13948,6.724058 z m -11.02652,9.263213 q 1.01096,-1.481174 1.55171,-3.456072 0.54074,-1.998409 0.54074,-4.325968 0,-2.139473 -0.94042,-3.267986 -0.94043,-1.152024 -3.36203,-1.152024 -1.24607,0 -2.44512,0.446703 -1.19904,0.423193 -2.53915,1.128514 l -3.05639,13.283541 q 0.75234,0.32915 1.73979,0.517235 1.01096,0.164575 2.06894,0.164575 2.13947,0 3.78522,-0.916917 1.64575,-0.916917 2.65671,-2.421601 z"
         id="path21313"
         style="font-style:italic;font-weight:bold;font-size:48.1499px;line-height:2.9;-inkscape-font-specification:'sans-serif, Bold Italic';letter-spacing:24.0689px;opacity:0.900585;stroke:#000000;stroke-width:9.1;stroke-linecap:round;stroke-linejoin:round;stroke-miterlimit:9.6;filter:url(#filter18393)" />
      <path
         d="m 251.51726,76.622059 q 0,3.644158 -1.19905,7.076719 -1.17553,3.40905 -3.22096,5.877673 -2.13948,2.609687 -4.84321,4.06735 -2.68022,1.457663 -6.01873,1.457663 -2.11597,0 -3.90278,-0.493725 -1.7633,-0.470214 -3.19745,-1.340109 l -2.53916,11.003 h -8.51087 l 8.3463,-36.088909 h 8.51087 l -0.63479,2.750751 q 2.39809,-1.645749 4.42001,-2.562666 2.04543,-0.916917 4.51405,-0.916917 3.99682,0 6.13629,2.445112 2.13948,2.421602 2.13948,6.724058 z m -11.02652,9.263213 q 1.01096,-1.481173 1.55171,-3.456072 0.54074,-1.998408 0.54074,-4.325967 0,-2.139473 -0.94043,-3.267986 -0.94042,-1.152024 -3.36202,-1.152024 -1.24607,0 -2.44512,0.446703 -1.19904,0.423192 -2.53915,1.128513 l -3.05639,13.283542 q 0.75234,0.329149 1.73979,0.517235 1.01096,0.164575 2.06894,0.164575 2.13947,0 3.78522,-0.916917 1.64575,-0.916917 2.65671,-2.421602 z"
         id="path21330"
         style="font-style:italic;font-weight:bold;font-size:48.1499px;line-height:2.9;-inkscape-font-specification:'sans-serif, Bold Italic';letter-spacing:24.0689px;fill:#ffffff;stroke:#ffffff;stroke-width:9.1;stroke-linecap:round;stroke-linejoin:round;stroke-miterlimit:9.6" />
      <path
         d="m 251.51726,76.622059 q 0,3.644158 -1.19905,7.076719 -1.17553,3.40905 -3.22096,5.877673 -2.13948,2.609687 -4.84321,4.06735 -2.68022,1.457663 -6.01873,1.457663 -2.11597,0 -3.90278,-0.493725 -1.7633,-0.470214 -3.19745,-1.340109 l -2.53916,11.003 h -8.51087 l 8.3463,-36.088909 h 8.51087 l -0.63479,2.750751 q 2.39809,-1.645749 4.42001,-2.562666 2.04543,-0.916917 4.51405,-0.916917 3.99682,0 6.13629,2.445112 2.13948,2.421602 2.13948,6.724058 z m -11.02652,9.263213 q 1.01096,-1.481173 1.55171,-3.456072 0.54074,-1.998408 0.54074,-4.325967 0,-2.139473 -0.94043,-3.267986 -0.94042,-1.152024 -3.36202,-1.152024 -1.24607,0 -2.44512,0.446703 -1.19904,0.423192 -2.53915,1.128513 l -3.05639,13.283542 q 0.75234,0.329149 1.73979,0.517235 1.01096,0.164575 2.06894,0.164575 2.13947,0 3.78522,-0.916917 1.64575,-0.916917 2.65671,-2.421602 z"
         id="path21347"
         style="font-style:italic;font-weight:bold;font-size:48.1499px;line-height:2.9;-inkscape-font-specification:'sans-serif, Bold Italic';letter-spacing:24.0689px;fill:#6f8a91;stroke:#6f8a91;stroke-width:5;stroke-linecap:round;stroke-linejoin:round;stroke-miterlimit:9.6" />
      <path
         d="m 251.51726,76.622059 q 0,3.644158 -1.19905,7.076719 -1.17553,3.40905 -3.22096,5.877673 -2.13948,2.609687 -4.84321,4.06735 -2.68022,1.457663 -6.01873,1.457663 -2.11597,0 -3.90278,-0.493725 -1.7633,-0.470214 -3.19745,-1.340109 l -2.53916,11.003 h -8.51087 l 8.3463,-36.088909 h 8.51087 l -0.63479,2.750751 q 2.39809,-1.645749 4.42001,-2.562666 2.04543,-0.916917 4.51405,-0.916917 3.99682,0 6.13629,2.445112 2.13948,2.421602 2.13948,6.724058 z m -11.02652,9.263213 q 1.01096,-1.481173 1.55171,-3.456072 0.54074,-1.998408 0.54074,-4.325967 0,-2.139473 -0.94043,-3.267986 -0.94042,-1.152024 -3.36202,-1.152024 -1.24607,0 -2.44512,0.446703 -1.19904,0.423192 -2.53915,1.128513 l -3.05639,13.283542 q 0.75234,0.329149 1.73979,0.517235 1.01096,0.164575 2.06894,0.164575 2.13947,0 3.78522,-0.916917 1.64575,-0.916917 2.65671,-2.421602 z"
         id="path21364"
         style="font-style:italic;font-weight:bold;font-size:48.1499px;line-height:2.9;-inkscape-font-specification:'sans-serif, Bold Italic';letter-spacing:24.0689px;fill:#ffffff;stroke-width:1.587;stroke-linecap:round;stroke-linejoin:round;stroke-miterlimit:9.6" />
    </g>
    <g
       id="g25047"
       transform="translate(35.146254,-51.636473)">
      <path
         d="m 185.05335,84.160915 q -2.25703,0.188085 -4.23193,0.446703 -1.9749,0.258618 -3.36203,0.752342 -1.43415,0.517235 -2.18649,1.457663 -0.75234,0.940428 -0.75234,2.492134 0,1.36362 0.98745,1.927876 1.01096,0.540746 2.91532,0.540746 1.24607,0 2.65671,-0.564256 1.43415,-0.587768 2.68022,-1.481174 z m -2.23352,9.662895 q -0.79936,0.517235 -1.92788,1.246066 -1.12851,0.728832 -2.09245,1.152024 -1.3166,0.540746 -2.46862,0.822874 -1.15202,0.282129 -3.19745,0.282129 -3.2915,0 -5.38395,-1.833834 -2.06894,-1.857345 -2.06894,-4.819692 0,-3.126922 1.48117,-5.289906 1.48117,-2.186494 4.3965,-3.479583 2.72724,-1.222556 6.48895,-1.763302 3.78522,-0.540745 8.18172,-0.799363 0.0235,-0.141064 0.094,-0.446703 0.0705,-0.32915 0.0705,-0.728832 0,-1.669259 -1.55171,-2.327558 -1.5517,-0.68181 -4.63161,-0.68181 -2.09245,0 -4.6316,0.70532 -2.51565,0.705321 -3.78522,1.175535 h -0.77586 l 1.24607,-6.253844 q 1.48117,-0.376171 4.58459,-0.846385 3.10341,-0.470214 6.18331,-0.470214 6.20682,0 9.09864,1.622238 2.91532,1.622238 2.91532,5.031288 0,0.470214 -0.094,1.222556 -0.0705,0.752342 -0.2116,1.316599 l -4.13788,17.962169 H 182.185 Z"
         id="path21311"
         style="font-style:italic;font-weight:bold;font-size:48.1499px;line-height:2.9;-inkscape-font-specification:'sans-serif, Bold Italic';letter-spacing:24.0689px;opacity:0.900585;stroke:#000000;stroke-width:9.1;stroke-linecap:round;stroke-linejoin:round;stroke-miterlimit:9.6;filter:url(#filter18393)" />
      <path
         d="m 182.98963,82.123561 q -2.25703,0.188086 -4.23193,0.446704 -1.9749,0.258617 -3.36203,0.752342 -1.43415,0.517235 -2.18649,1.457663 -0.75234,0.940427 -0.75234,2.492133 0,1.36362 0.98745,1.927877 1.01096,0.540746 2.91532,0.540746 1.24607,0 2.65671,-0.564257 1.43415,-0.587767 2.68022,-1.481173 z m -2.23352,9.662895 q -0.79936,0.517235 -1.92788,1.246067 -1.12851,0.728831 -2.09245,1.152024 -1.3166,0.540746 -2.46862,0.822874 -1.15202,0.282128 -3.19745,0.282128 -3.2915,0 -5.38395,-1.833834 -2.06894,-1.857344 -2.06894,-4.819692 0,-3.126922 1.48117,-5.289906 1.48117,-2.186494 4.3965,-3.479582 2.72724,-1.222556 6.48895,-1.763302 3.78522,-0.540746 8.18172,-0.799364 0.0235,-0.141064 0.094,-0.446703 0.0705,-0.329149 0.0705,-0.728831 0,-1.669259 -1.55171,-2.327559 -1.55171,-0.68181 -4.63161,-0.68181 -2.09245,0 -4.6316,0.705321 -2.51565,0.705321 -3.78522,1.175535 h -0.77586 l 1.24607,-6.253845 q 1.48117,-0.376171 4.58458,-0.846385 3.10342,-0.470213 6.18332,-0.470213 6.20682,0 9.09863,1.622237 2.91533,1.622238 2.91533,5.031289 0,0.470213 -0.094,1.222556 -0.0705,0.752342 -0.2116,1.316598 l -4.13788,17.96217 h -8.41683 z"
         id="path21328"
         style="font-style:italic;font-weight:bold;font-size:48.1499px;line-height:2.9;-inkscape-font-specification:'sans-serif, Bold Italic';letter-spacing:24.0689px;fill:#ffffff;stroke:#ffffff;stroke-width:9.1;stroke-linecap:round;stroke-linejoin:round;stroke-miterlimit:9.6" />
      <path
         d="m 182.98963,82.123561 q -2.25703,0.188086 -4.23193,0.446704 -1.9749,0.258617 -3.36203,0.752342 -1.43415,0.517235 -2.18649,1.457663 -0.75234,0.940427 -0.75234,2.492133 0,1.36362 0.98745,1.927877 1.01096,0.540746 2.91532,0.540746 1.24607,0 2.65671,-0.564257 1.43415,-0.587767 2.68022,-1.481173 z m -2.23352,9.662895 q -0.79936,0.517235 -1.92788,1.246067 -1.12851,0.728831 -2.09245,1.152024 -1.3166,0.540746 -2.46862,0.822874 -1.15202,0.282128 -3.19745,0.282128 -3.2915,0 -5.38395,-1.833834 -2.06894,-1.857344 -2.06894,-4.819692 0,-3.126922 1.48117,-5.289906 1.48117,-2.186494 4.3965,-3.479582 2.72724,-1.222556 6.48895,-1.763302 3.78522,-0.540746 8.18172,-0.799364 0.0235,-0.141064 0.094,-0.446703 0.0705,-0.329149 0.0705,-0.728831 0,-1.669259 -1.55171,-2.327559 -1.55171,-0.68181 -4.63161,-0.68181 -2.09245,0 -4.6316,0.705321 -2.51565,0.705321 -3.78522,1.175535 h -0.77586 l 1.24607,-6.253845 q 1.48117,-0.376171 4.58458,-0.846385 3.10342,-0.470213 6.18332,-0.470213 6.20682,0 9.09863,1.622237 2.91533,1.622238 2.91533,5.031289 0,0.470213 -0.094,1.222556 -0.0705,0.752342 -0.2116,1.316598 l -4.13788,17.96217 h -8.41683 z"
         id="path21345"
         style="font-style:italic;font-weight:bold;font-size:48.1499px;line-height:2.9;-inkscape-font-specification:'sans-serif, Bold Italic';letter-spacing:24.0689px;fill:#6f8a91;stroke:#6f8a91;stroke-width:5;stroke-linecap:round;stroke-linejoin:round;stroke-miterlimit:9.6" />
      <path
         d="m 182.98963,82.123561 q -2.25703,0.188086 -4.23193,0.446704 -1.9749,0.258617 -3.36203,0.752342 -1.43415,0.517235 -2.18649,1.457663 -0.75234,0.940427 -0.75234,2.492133 0,1.36362 0.98745,1.927877 1.01096,0.540746 2.91532,0.540746 1.24607,0 2.65671,-0.564257 1.43415,-0.587767 2.68022,-1.481173 z m -2.23352,9.662895 q -0.79936,0.517235 -1.92788,1.246067 -1.12851,0.728831 -2.09245,1.152024 -1.3166,0.540746 -2.46862,0.822874 -1.15202,0.282128 -3.19745,0.282128 -3.2915,0 -5.38395,-1.833834 -2.06894,-1.857344 -2.06894,-4.819692 0,-3.126922 1.48117,-5.289906 1.48117,-2.186494 4.3965,-3.479582 2.72724,-1.222556 6.48895,-1.763302 3.78522,-0.540746 8.18172,-0.799364 0.0235,-0.141064 0.094,-0.446703 0.0705,-0.329149 0.0705,-0.728831 0,-1.669259 -1.55171,-2.327559 -1.55171,-0.68181 -4.63161,-0.68181 -2.09245,0 -4.6316,0.705321 -2.51565,0.705321 -3.78522,1.175535 h -0.77586 l 1.24607,-6.253845 q 1.48117,-0.376171 4.58458,-0.846385 3.10342,-0.470213 6.18332,-0.470213 6.20682,0 9.09863,1.622237 2.91533,1.622238 2.91533,5.031289 0,0.470213 -0.094,1.222556 -0.0705,0.752342 -0.2116,1.316598 l -4.13788,17.96217 h -8.41683 z"
         id="path21362"
         style="font-style:italic;font-weight:bold;font-size:48.1499px;line-height:2.9;-inkscape-font-specification:'sans-serif, Bold Italic';letter-spacing:24.0689px;fill:#ffffff;stroke-width:1.587;stroke-linecap:round;stroke-linejoin:round;stroke-miterlimit:9.6" />
    </g>
    <g
       id="g25053"
       transform="translate(60.137274,-51.06414)">
      <path
         d="m 127.4112,97.326903 q -2.70373,0 -5.07831,-0.68181 -2.35107,-0.6583 -4.11437,-2.068941 -1.71628,-1.387131 -2.68022,-3.479583 -0.96394,-2.092451 -0.96394,-4.843202 0,-3.550115 1.34011,-6.582994 1.36362,-3.05639 3.80873,-5.336928 2.3981,-2.233515 5.85417,-3.526603 3.45607,-1.316599 7.4764,-1.316599 2.4216,0 4.79618,0.540746 2.39809,0.540746 4.44352,1.575216 l -1.78681,7.217783 h -1.19905 q -1.38713,-1.669259 -3.15043,-2.468623 -1.73979,-0.822874 -3.92629,-0.822874 -3.99681,0 -6.41842,2.844794 -2.4216,2.821283 -2.4216,7.053207 0,2.938837 1.48118,4.3965 1.50468,1.457663 4.65511,1.457663 2.44512,0 4.44352,-0.987449 2.02192,-1.01096 3.45608,-2.233516 h 1.19904 l -1.78681,7.217783 q -2.53916,1.105002 -4.46703,1.575216 -1.90437,0.470214 -4.96076,0.470214 z"
         id="path21309"
         style="font-style:italic;font-weight:bold;font-size:48.1499px;line-height:2.9;-inkscape-font-specification:'sans-serif, Bold Italic';letter-spacing:24.0689px;opacity:0.900585;stroke:#000000;stroke-width:9.1;stroke-linecap:round;stroke-linejoin:round;stroke-miterlimit:9.6;filter:url(#filter18393)" />
      <path
         d="m 125.34748,95.289549 q -2.70373,0 -5.07831,-0.68181 -2.35107,-0.658299 -4.11437,-2.068941 -1.71628,-1.387131 -2.68022,-3.479582 -0.96394,-2.092452 -0.96394,-4.843203 0,-3.550115 1.34011,-6.582994 1.36362,-3.05639 3.80873,-5.336927 2.39809,-2.233516 5.85417,-3.526604 3.45607,-1.316599 7.4764,-1.316599 2.4216,0 4.79618,0.540746 2.39809,0.540746 4.44352,1.575217 l -1.78681,7.217782 h -1.19905 q -1.38713,-1.669259 -3.15043,-2.468623 -1.73979,-0.822874 -3.92629,-0.822874 -3.99682,0 -6.41842,2.844794 -2.4216,2.821283 -2.4216,7.053208 0,2.938836 1.48118,4.396499 1.50468,1.457663 4.65511,1.457663 2.44511,0 4.44352,-0.987449 2.02192,-1.01096 3.45608,-2.233516 h 1.19904 l -1.78681,7.217783 q -2.53916,1.105003 -4.46703,1.575216 -1.90437,0.470214 -4.96076,0.470214 z"
         id="path21326"
         style="font-style:italic;font-weight:bold;font-size:48.1499px;line-height:2.9;-inkscape-font-specification:'sans-serif, Bold Italic';letter-spacing:24.0689px;fill:#ffffff;stroke:#ffffff;stroke-width:9.1;stroke-linecap:round;stroke-linejoin:round;stroke-miterlimit:9.6" />
      <path
         d="m 125.34748,95.289549 q -2.70373,0 -5.07831,-0.68181 -2.35107,-0.658299 -4.11437,-2.068941 -1.71628,-1.387131 -2.68022,-3.479582 -0.96394,-2.092452 -0.96394,-4.843203 0,-3.550115 1.34011,-6.582994 1.36362,-3.05639 3.80873,-5.336927 2.39809,-2.233516 5.85417,-3.526604 3.45607,-1.316599 7.4764,-1.316599 2.4216,0 4.79618,0.540746 2.39809,0.540746 4.44352,1.575217 l -1.78681,7.217782 h -1.19905 q -1.38713,-1.669259 -3.15043,-2.468623 -1.73979,-0.822874 -3.92629,-0.822874 -3.99682,0 -6.41842,2.844794 -2.4216,2.821283 -2.4216,7.053208 0,2.938836 1.48118,4.396499 1.50468,1.457663 4.65511,1.457663 2.44511,0 4.44352,-0.987449 2.02192,-1.01096 3.45608,-2.233516 h 1.19904 l -1.78681,7.217783 q -2.53916,1.105003 -4.46703,1.575216 -1.90437,0.470214 -4.96076,0.470214 z"
         id="path21343"
         style="font-style:italic;font-weight:bold;font-size:48.1499px;line-height:2.9;-inkscape-font-specification:'sans-serif, Bold Italic';letter-spacing:24.0689px;fill:#6f8a91;stroke:#6f8a91;stroke-width:5;stroke-linecap:round;stroke-linejoin:round;stroke-miterlimit:9.6" />
      <path
         d="m 125.34748,95.289549 q -2.70373,0 -5.07831,-0.68181 -2.35107,-0.658299 -4.11437,-2.068941 -1.71628,-1.387131 -2.68022,-3.479582 -0.96394,-2.092452 -0.96394,-4.843203 0,-3.550115 1.34011,-6.582994 1.36362,-3.05639 3.80873,-5.336927 2.39809,-2.233516 5.85417,-3.526604 3.45607,-1.316599 7.4764,-1.316599 2.4216,0 4.79618,0.540746 2.39809,0.540746 4.44352,1.575217 l -1.78681,7.217782 h -1.19905 q -1.38713,-1.669259 -3.15043,-2.468623 -1.73979,-0.822874 -3.92629,-0.822874 -3.99682,0 -6.41842,2.844794 -2.4216,2.821283 -2.4216,7.053208 0,2.938836 1.48118,4.396499 1.50468,1.457663 4.65511,1.457663 2.44511,0 4.44352,-0.987449 2.02192,-1.01096 3.45608,-2.233516 h 1.19904 l -1.78681,7.217783 q -2.53916,1.105003 -4.46703,1.575216 -1.90437,0.470214 -4.96076,0.470214 z"
         id="path21360"
         style="font-style:italic;font-weight:bold;font-size:48.1499px;line-height:2.9;-inkscape-font-specification:'sans-serif, Bold Italic';letter-spacing:24.0689px;fill:#ffffff;stroke-width:1.587;stroke-linecap:round;stroke-linejoin:round;stroke-miterlimit:9.6" />
    </g>
    <g
       id="g25059"
       transform="translate(86.692104,-51.636473)">
      <path
         d="m 71.32073,97.350414 q -3.38554,0 -6.559483,-0.634789 -3.173944,-0.634789 -4.866714,-1.481174 l 1.622238,-6.959165 h 0.775853 q 0.517235,0.446703 1.293088,0.987449 0.799364,0.540746 2.257027,1.128513 1.246066,0.540746 2.891815,0.940428 1.645748,0.376171 3.550114,0.376171 2.844794,0 4.255436,-0.658299 1.434152,-0.6583 1.434152,-1.880856 0,-0.940427 -1.01096,-1.434152 -1.01096,-0.493724 -4.184903,-1.222556 -5.383949,-1.246067 -7.382358,-3.009368 -1.974898,-1.763302 -1.974898,-4.3965 0,-4.467032 3.996818,-7.029697 3.996818,-2.586176 10.814919,-2.586176 2.962347,0 5.924694,0.611278 2.962347,0.587767 4.349478,1.269577 l -1.551705,6.677037 h -0.728832 q -1.669259,-1.293088 -4.043839,-2.092452 -2.351069,-0.822874 -4.843203,-0.822874 -2.703729,0 -4.161392,0.658299 -1.434152,0.634789 -1.434152,1.974899 0,1.03447 1.246066,1.598727 1.246067,0.540746 3.926286,1.128513 4.984267,1.081492 7.170761,2.72724 2.210005,1.645749 2.210005,4.608096 0,4.42001 -4.043839,6.982676 -4.043839,2.539155 -10.932472,2.539155 z"
         id="path21307"
         style="font-style:italic;font-weight:bold;font-size:48.1499px;line-height:2.9;-inkscape-font-specification:'sans-serif, Bold Italic';letter-spacing:24.0689px;opacity:0.900585;stroke:#000000;stroke-width:9.1;stroke-linecap:round;stroke-linejoin:round;stroke-miterlimit:9.6;filter:url(#filter18393)" />
      <path
         d="m 69.257009,95.31306 q -3.385539,0 -6.559483,-0.634789 -3.173943,-0.634788 -4.866713,-1.481173 l 1.622238,-6.959165 h 0.775852 q 0.517236,0.446703 1.293088,0.987449 0.799364,0.540746 2.257027,1.128513 1.246067,0.540746 2.891815,0.940428 1.645749,0.376171 3.550115,0.376171 2.844794,0 4.255435,-0.6583 1.434152,-0.658299 1.434152,-1.880855 0,-0.940428 -1.010959,-1.434152 -1.01096,-0.493725 -4.184904,-1.222556 -5.383948,-1.246067 -7.382357,-3.009369 -1.974898,-1.763302 -1.974898,-4.3965 0,-4.467031 3.996817,-7.029697 3.996818,-2.586176 10.814919,-2.586176 2.962347,0 5.924695,0.611278 2.962347,0.587768 4.349478,1.269578 l -1.551706,6.677036 h -0.728832 q -1.669259,-1.293088 -4.043839,-2.092451 -2.351069,-0.822875 -4.843202,-0.822875 -2.70373,0 -4.161393,0.6583 -1.434152,0.634789 -1.434152,1.974898 0,1.03447 1.246067,1.598727 1.246066,0.540746 3.926285,1.128513 4.984267,1.081492 7.170761,2.727241 2.210006,1.645748 2.210006,4.608095 0,4.420011 -4.04384,6.982676 -4.043839,2.539155 -10.932472,2.539155 z"
         id="path21324"
         style="font-style:italic;font-weight:bold;font-size:48.1499px;line-height:2.9;-inkscape-font-specification:'sans-serif, Bold Italic';letter-spacing:24.0689px;fill:#ffffff;stroke:#ffffff;stroke-width:9.1;stroke-linecap:round;stroke-linejoin:round;stroke-miterlimit:9.6" />
      <path
         d="m 69.257009,95.31306 q -3.385539,0 -6.559483,-0.634789 -3.173943,-0.634788 -4.866713,-1.481173 l 1.622238,-6.959165 h 0.775852 q 0.517236,0.446703 1.293088,0.987449 0.799364,0.540746 2.257027,1.128513 1.246067,0.540746 2.891815,0.940428 1.645749,0.376171 3.550115,0.376171 2.844794,0 4.255435,-0.6583 1.434152,-0.658299 1.434152,-1.880855 0,-0.940428 -1.010959,-1.434152 -1.01096,-0.493725 -4.184904,-1.222556 -5.383948,-1.246067 -7.382357,-3.009369 -1.974898,-1.763302 -1.974898,-4.3965 0,-4.467031 3.996817,-7.029697 3.996818,-2.586176 10.814919,-2.586176 2.962347,0 5.924695,0.611278 2.962347,0.587768 4.349478,1.269578 l -1.551706,6.677036 h -0.728832 q -1.669259,-1.293088 -4.043839,-2.092451 -2.351069,-0.822875 -4.843202,-0.822875 -2.70373,0 -4.161393,0.6583 -1.434152,0.634789 -1.434152,1.974898 0,1.03447 1.246067,1.598727 1.246066,0.540746 3.926285,1.128513 4.984267,1.081492 7.170761,2.727241 2.210006,1.645748 2.210006,4.608095 0,4.420011 -4.04384,6.982676 -4.043839,2.539155 -10.932472,2.539155 z"
         id="path21341"
         style="font-style:italic;font-weight:bold;font-size:48.1499px;line-height:2.9;-inkscape-font-specification:'sans-serif, Bold Italic';letter-spacing:24.0689px;fill:#6f8a91;stroke:#6f8a91;stroke-width:5;stroke-linecap:round;stroke-linejoin:round;stroke-miterlimit:9.6" />
      <path
         d="m 69.257009,95.31306 q -3.385539,0 -6.559483,-0.634789 -3.173943,-0.634788 -4.866713,-1.481173 l 1.622238,-6.959165 h 0.775852 q 0.517236,0.446703 1.293088,0.987449 0.799364,0.540746 2.257027,1.128513 1.246067,0.540746 2.891815,0.940428 1.645749,0.376171 3.550115,0.376171 2.844794,0 4.255435,-0.6583 1.434152,-0.658299 1.434152,-1.880855 0,-0.940428 -1.010959,-1.434152 -1.01096,-0.493725 -4.184904,-1.222556 -5.383948,-1.246067 -7.382357,-3.009369 -1.974898,-1.763302 -1.974898,-4.3965 0,-4.467031 3.996817,-7.029697 3.996818,-2.586176 10.814919,-2.586176 2.962347,0 5.924695,0.611278 2.962347,0.587768 4.349478,1.269578 l -1.551706,6.677036 h -0.728832 q -1.669259,-1.293088 -4.043839,-2.092451 -2.351069,-0.822875 -4.843202,-0.822875 -2.70373,0 -4.161393,0.6583 -1.434152,0.634789 -1.434152,1.974898 0,1.03447 1.246067,1.598727 1.246066,0.540746 3.926285,1.128513 4.984267,1.081492 7.170761,2.727241 2.210006,1.645748 2.210006,4.608095 0,4.420011 -4.04384,6.982676 -4.043839,2.539155 -10.932472,2.539155 z"
         id="path21358"
         style="font-style:italic;font-weight:bold;font-size:48.1499px;line-height:2.9;-inkscape-font-specification:'sans-serif, Bold Italic';letter-spacing:24.0689px;fill:#ffffff;stroke-width:1.587;stroke-linecap:round;stroke-linejoin:round;stroke-miterlimit:9.6" />
    </g>
    <g
       id="g25065"
       transform="translate(113.50321,-51.636473)">
      <path
         d="m 33.098396,96.621582 h -8.910553 l -5.195863,-11.661304 -3.7382,3.338519 -1.951388,8.322785 H 4.7915217 L 13.23186,60.038944 h 8.510871 L 16.711443,81.880378 28.513811,70.219074 h 9.756937 l -12.22556,11.496729 z"
         id="path21305"
         style="font-style:italic;font-weight:bold;font-size:48.1499px;line-height:2.9;-inkscape-font-specification:'sans-serif, Bold Italic';letter-spacing:24.0689px;opacity:0.900585;stroke:#000000;stroke-width:9.1;stroke-linecap:round;stroke-linejoin:round;stroke-miterlimit:9.6;filter:url(#filter18393)" />
      <path
         d="m 31.034675,94.584229 h -8.910553 l -5.195863,-11.661304 -3.7382,3.338518 -1.951387,8.322786 H 2.727801 L 11.16814,58.001591 h 8.51087 L 14.647722,79.843024 26.45009,68.181721 h 9.756937 l -12.22556,11.496728 z"
         id="path21322"
         style="font-style:italic;font-weight:bold;font-size:48.1499px;line-height:2.9;-inkscape-font-specification:'sans-serif, Bold Italic';letter-spacing:24.0689px;fill:#ffffff;stroke:#ffffff;stroke-width:9.1;stroke-linecap:round;stroke-linejoin:round;stroke-miterlimit:9.6" />
      <path
         d="m 31.034675,94.584229 h -8.910553 l -5.195863,-11.661304 -3.7382,3.338518 -1.951387,8.322786 H 2.727801 L 11.16814,58.001591 h 8.51087 L 14.647722,79.843024 26.45009,68.181721 h 9.756937 l -12.22556,11.496728 z"
         id="path21339"
         style="font-style:italic;font-weight:bold;font-size:48.1499px;line-height:2.9;-inkscape-font-specification:'sans-serif, Bold Italic';letter-spacing:24.0689px;fill:#6f8a91;stroke:#6f8a91;stroke-width:5;stroke-linecap:round;stroke-linejoin:round;stroke-miterlimit:9.6" />
      <path
         d="m 31.034675,94.584229 h -8.910553 l -5.195863,-11.661304 -3.7382,3.338518 -1.951387,8.322786 H 2.727801 L 11.16814,58.001591 h 8.51087 L 14.647722,79.843024 26.45009,68.181721 h 9.756937 l -12.22556,11.496728 z"
         id="path21356"
         style="font-style:italic;font-weight:bold;font-size:48.1499px;line-height:2.9;-inkscape-font-specification:'sans-serif, Bold Italic';letter-spacing:24.0689px;fill:#ffffff;stroke-width:1.587;stroke-linecap:round;stroke-linejoin:round;stroke-miterlimit:9.6" />
    </g>
    <g
       id="g25071"
       transform="translate(145.33064,-51.636473)">
      <path
         d="m -22.68643,76.19079 q 0,0.705321 -0.09404,1.528195 -0.09404,0.822874 -0.305639,1.716281 l -3.949796,17.186316 h -8.557893 l 3.009369,-13.095456 q 0.32915,-1.457663 0.517235,-2.492133 0.188086,-1.034471 0.188086,-1.927877 0,-1.528195 -0.775853,-2.233516 -0.775853,-0.705321 -2.844794,-0.705321 -1.01096,0 -2.327558,0.446704 -1.316599,0.423192 -2.962348,1.293088 l -4.302456,18.714511 h -8.510871 l 6.089269,-26.402508 h 8.510871 l -0.68181,2.915326 q 2.609687,-1.71628 4.74916,-2.680219 2.162984,-0.963938 4.74916,-0.963938 3.550114,0 5.525012,1.71628 1.974899,1.716281 1.974899,4.984267 z"
         id="path21303"
         style="font-style:italic;font-weight:bold;font-size:48.1499px;line-height:2.9;-inkscape-font-specification:'sans-serif, Bold Italic';letter-spacing:24.0689px;opacity:0.900585;stroke:#000000;stroke-width:9.1;stroke-linecap:round;stroke-linejoin:round;stroke-miterlimit:9.6;filter:url(#filter18393)" />
      <path
         d="m -24.750151,74.153437 q 0,0.70532 -0.09404,1.528195 -0.09404,0.822874 -0.305639,1.71628 l -3.949796,17.186317 h -8.557892 l 3.009368,-13.095456 q 0.32915,-1.457663 0.517236,-2.492134 0.188085,-1.03447 0.188085,-1.927877 0,-1.528195 -0.775853,-2.233515 -0.775853,-0.705321 -2.844794,-0.705321 -1.010959,0 -2.327558,0.446703 -1.316599,0.423193 -2.962347,1.293088 l -4.302457,18.714512 h -8.510871 l 6.08927,-26.402508 h 8.51087 l -0.68181,2.915326 q 2.609687,-1.716281 4.74916,-2.680219 2.162984,-0.963939 4.74916,-0.963939 3.550115,0 5.525013,1.716281 1.974898,1.71628 1.974898,4.984267 z"
         id="path21320"
         style="font-style:italic;font-weight:bold;font-size:48.1499px;line-height:2.9;-inkscape-font-specification:'sans-serif, Bold Italic';letter-spacing:24.0689px;fill:#ffffff;stroke:#ffffff;stroke-width:9.1;stroke-linecap:round;stroke-linejoin:round;stroke-miterlimit:9.6" />
      <path
         d="m -24.750151,74.153437 q 0,0.70532 -0.09404,1.528195 -0.09404,0.822874 -0.305639,1.71628 l -3.949796,17.186317 h -8.557892 l 3.009368,-13.095456 q 0.32915,-1.457663 0.517236,-2.492134 0.188085,-1.03447 0.188085,-1.927877 0,-1.528195 -0.775853,-2.233515 -0.775853,-0.705321 -2.844794,-0.705321 -1.010959,0 -2.327558,0.446703 -1.316599,0.423193 -2.962347,1.293088 l -4.302457,18.714512 h -8.510871 l 6.08927,-26.402508 h 8.51087 l -0.68181,2.915326 q 2.609687,-1.716281 4.74916,-2.680219 2.162984,-0.963939 4.74916,-0.963939 3.550115,0 5.525013,1.716281 1.974898,1.71628 1.974898,4.984267 z"
         id="path21337"
         style="font-style:italic;font-weight:bold;font-size:48.1499px;line-height:2.9;-inkscape-font-specification:'sans-serif, Bold Italic';letter-spacing:24.0689px;fill:#6f8a91;stroke:#6f8a91;stroke-width:5;stroke-linecap:round;stroke-linejoin:round;stroke-miterlimit:9.6" />
      <path
         d="m -24.750151,74.153437 q 0,0.70532 -0.09404,1.528195 -0.09404,0.822874 -0.305639,1.71628 l -3.949796,17.186317 h -8.557892 l 3.009368,-13.095456 q 0.32915,-1.457663 0.517236,-2.492134 0.188085,-1.03447 0.188085,-1.927877 0,-1.528195 -0.775853,-2.233515 -0.775853,-0.705321 -2.844794,-0.705321 -1.010959,0 -2.327558,0.446703 -1.316599,0.423193 -2.962347,1.293088 l -4.302457,18.714512 h -8.510871 l 6.08927,-26.402508 h 8.51087 l -0.68181,2.915326 q 2.609687,-1.716281 4.74916,-2.680219 2.162984,-0.963939 4.74916,-0.963939 3.550115,0 5.525013,1.716281 1.974898,1.71628 1.974898,4.984267 z"
         id="path21354"
         style="font-style:italic;font-weight:bold;font-size:48.1499px;line-height:2.9;-inkscape-font-specification:'sans-serif, Bold Italic';letter-spacing:24.0689px;fill:#ffffff;stroke-width:1.587;stroke-linecap:round;stroke-linejoin:round;stroke-miterlimit:9.6" />
    </g>
    <g
       id="g25077"
       transform="translate(173.75191,-51.636473)">
      <path
         d="m -84.560521,96.621582 h -20.501329 l 1.43416,-6.206823 h 5.713096 l 5.219373,-22.593775 h -5.713098 l 1.434152,-6.206823 h 20.501324 l -1.434152,6.206823 h -5.713098 l -5.219374,22.593775 h 5.713098 z"
         id="path21301"
         style="font-style:italic;font-weight:bold;font-size:48.1499px;line-height:2.9;-inkscape-font-specification:'sans-serif, Bold Italic';letter-spacing:24.0689px;opacity:0.900585;stroke:#000000;stroke-width:9.1;stroke-linecap:round;stroke-linejoin:round;stroke-miterlimit:9.6;filter:url(#filter18393)" />
      <path
         d="m -86.624242,94.584229 h -20.501328 l 1.43416,-6.206823 h 5.713095 l 5.219374,-22.593776 h -5.713099 l 1.434153,-6.206823 h 20.501323 l -1.434152,6.206823 h -5.713098 l -5.219374,22.593776 h 5.713098 z"
         id="path21318"
         style="font-style:italic;font-weight:bold;font-size:48.1499px;line-height:2.9;-inkscape-font-specification:'sans-serif, Bold Italic';letter-spacing:24.0689px;fill:#ffffff;stroke:#ffffff;stroke-width:9.1;stroke-linecap:round;stroke-linejoin:round;stroke-miterlimit:9.6" />
      <path
         d="m -86.624242,94.584229 h -20.501328 l 1.43416,-6.206823 h 5.713095 l 5.219374,-22.593776 h -5.713099 l 1.434153,-6.206823 h 20.501323 l -1.434152,6.206823 h -5.713098 l -5.219374,22.593776 h 5.713098 z"
         id="path21335"
         style="font-style:italic;font-weight:bold;font-size:48.1499px;line-height:2.9;-inkscape-font-specification:'sans-serif, Bold Italic';letter-spacing:24.0689px;fill:#6f8a91;stroke:#6f8a91;stroke-width:5;stroke-linecap:round;stroke-linejoin:round;stroke-miterlimit:9.6" />
      <path
         d="m -86.624242,94.584229 h -20.501328 l 1.43416,-6.206823 h 5.713095 l 5.219374,-22.593776 h -5.713099 l 1.434153,-6.206823 h 20.501323 l -1.434152,6.206823 h -5.713098 l -5.219374,22.593776 h 5.713098 z"
         id="path21352"
         style="font-style:italic;font-weight:bold;font-size:48.1499px;line-height:2.9;-inkscape-font-specification:'sans-serif, Bold Italic';letter-spacing:24.0689px;fill:#ffffff;stroke-width:1.587;stroke-linecap:round;stroke-linejoin:round;stroke-miterlimit:9.6" />
    </g>
  </g>
</svg>
